# xmcd
#
# Track frame offsets: 
#        151
#        11867
#        20366
#        51097
#        60516
#        84165
#        100183
#        111362
#        123685
#        131872
#        144965
#        155432
#        172639
#
# Disc length: 2618 seconds
#
# Revision: 0
# Processed by: cddbd v1.5.2PL0 Copyright (c) Steve Scherf et al.
# Submitted via: ExactAudioCopy v0.95b4
#
DISCID=a30a380d
DTITLE=Fats Domino - Sentimental Journey
DYEAR=1900
DGENRE=Blues
TTITLE0=Blueberry Hill
TTITLE1=My Girl Josephine
TTITLE2=Let The Four Winds Blow
TTITLE3=Margie
TTITLE4=Another Mule Kicking In Your Stall
TTITLE5=I'm In Love Again
TTITLE6=Rosemary
TTITLE7=Valley Of Tears
TTITLE8=The Sheik Of Araby
TTITLE9=I'm In The Mood For Love
TTITLE10=Mardi Gras In New Orleans
TTITLE11=When The Saints Go Marching In
TTITLE12=Sentimental Journey
EXTD=
EXTT0=
EXTT1=
EXTT2=
EXTT3=
EXTT4=
EXTT5=
EXTT6=
EXTT7=
EXTT8=
EXTT9=
EXTT10=
EXTT11=
EXTT12=
PLAYORDER=
